<svg width="50" height="51" viewBox="0 0 50 51" fill="none" xmlns="http://www.w3.org/2000/svg">
<path d="M8.53194 3.56108C8.53194 3.56108 3.74132 15.4587 1.56944 33.3181C1.37491 34.915 5.05226 33.4861 6.32101 33.0025C9.18819 15.4126 13.2819 3.35952 13.2819 3.35952C12.0866 3.15483 8.53194 3.56108 8.53194 3.56108Z" fill="white"/>
<path d="M29.1249 4.86584C30.814 7.60256 30.0757 11.9408 29.053 16.2448C27.3655 23.201 23.3866 30.3924 16.9483 30.3924C10.8608 30.3924 10.228 23.7862 11.8475 17.0213C12.8311 12.9221 14.4507 8.74006 16.9132 5.96428C18.814 3.84866 21.4179 2.56116 24.021 2.56116C26.5538 2.56116 28.2796 3.06741 29.1249 4.86584ZM16.7374 17.0627C15.3655 22.7346 15.9999 25.5854 18.253 25.5854C20.6077 25.5854 22.8249 21.9885 24.2702 16.0869C25.6061 10.458 24.9726 7.87444 22.7202 7.87444C20.5726 7.87444 18.2171 11.0026 16.7374 17.0627Z" fill="white"/>
<path d="M47.4351 4.86819C49.1242 7.60256 48.3851 11.9408 47.3648 16.244C45.6749 23.2002 41.7 30.3932 35.2601 30.3932C29.1726 30.3932 28.5382 23.7854 30.1578 17.0221C31.1445 12.9213 32.7617 8.73928 35.2257 5.9635C37.1257 3.85256 39.7289 2.56116 42.3335 2.56116C44.8679 2.56116 46.5906 3.06741 47.4351 4.86819ZM35.0492 17.0635C33.6773 22.7338 34.3101 25.5862 36.5617 25.5862C38.921 25.5862 41.1375 21.9869 42.5789 16.0893C43.9156 10.4557 43.2835 7.87366 41.0304 7.87366C38.8843 7.87444 36.5257 11.0026 35.0492 17.0635Z" fill="white"/>
<path d="M37.1577 38.9517C32.9663 38.9517 11.11 40.6713 2.50145 41.3791C1.91473 39.1494 2.68113 37.1674 3.67332 36.2049C7.99832 35.3908 36.7514 33.1689 38.9171 34.4369C38.5561 36.008 37.9249 37.9908 37.1577 38.9517Z" fill="white"/>
<path d="M33.4842 47.701C29.2037 47.701 15.5717 48.651 6.78026 49.4362C6.18182 46.9526 6.96464 44.7588 7.97714 43.6909C12.3943 42.787 33.0693 41.2792 35.2795 42.6854C34.9123 44.4307 34.267 46.6307 33.4842 47.701Z" fill="white"/>
</svg>
