<svg width="1440" height="601" viewBox="0 0 1440 601" fill="none" xmlns="http://www.w3.org/2000/svg">
<path d="M0 25.2118C0 25.2118 99.3928 5.74905 261.726 0.499868C424.059 -4.74931 567.073 44.869 719.997 25.2118C821.475 12.1676 952.89 26.6367 1029.83 37.8483C1072.49 44.065 1115.61 46.9216 1158.63 44.0428L1439.99 25.2118V581.228C1439.99 581.228 1312.84 605.124 1139.66 599C966.481 592.876 919.551 548 654.315 561C561.978 565.526 484.467 560.78 422.652 552.67C306.133 537.382 184.276 528.286 71.3277 560.735L0 581.228V25.2118Z" fill="url(#paint0_linear)"/>
<defs>
<linearGradient id="paint0_linear" x1="800" y1="456" x2="800" y2="84.5" gradientUnits="userSpaceOnUse">
<stop stop-color="#7DC7F5"/>
<stop offset="1" stop-color="#0DA5D6"/>
</linearGradient>
</defs>
</svg>
