<svg width="30" height="30" viewBox="0 0 30 30" fill="none" xmlns="http://www.w3.org/2000/svg">
<path d="M23.6158 0.839876V0.836777C23.0833 0.301472 22.3595 0.000309917 21.6044 0H8.39265C6.82346 0.00511364 5.55272 1.27585 5.54761 2.84504V27.1519C5.54792 27.9069 5.84908 28.6307 6.38438 29.1632C6.91613 29.6978 7.6387 29.9988 8.39265 30H21.6075C22.3615 29.9988 23.084 29.6978 23.6158 29.1632C24.1503 28.6315 24.4514 27.9089 24.4526 27.155V2.84814C24.4514 2.09419 24.1503 1.37162 23.6158 0.839876ZM15.0001 28.0692C14.5756 28.0692 14.2315 27.7251 14.2315 27.3006C14.2315 26.8761 14.5756 26.532 15.0001 26.532C15.4246 26.532 15.7687 26.8761 15.7687 27.3006C15.7687 27.7251 15.4246 28.0692 15.0001 28.0692ZM22.1933 23.2438C22.1933 24.2708 21.3608 25.1033 20.3338 25.1033H9.66331C8.63632 25.1033 7.80381 24.2708 7.80381 23.2438V5.12913C7.80381 4.10214 8.63632 3.26963 9.66331 3.26963H20.3369C21.3639 3.26963 22.1964 4.10214 22.1964 5.12913L22.1933 23.2438Z" fill="#47B6E6"/>
</svg>
