<svg width="50" height="51" viewBox="0 0 50 51" fill="none" xmlns="http://www.w3.org/2000/svg">
<path d="M42.4588 18.8529L39.8963 22.707C41.1321 25.1718 41.7371 27.9046 41.6571 30.6606C41.5771 33.4167 40.8146 36.1098 39.4379 38.4987H10.5629C8.77371 35.3948 8.03231 31.7969 8.44865 28.2384C8.86499 24.68 10.4169 21.3504 12.8744 18.7433C15.3318 16.1363 18.5639 14.3905 22.0916 13.7647C25.6192 13.139 29.2546 13.6667 32.4588 15.2695L36.3129 12.707C32.3889 10.1908 27.7344 9.0633 23.094 9.50482C18.4535 9.94635 14.0951 11.9314 10.7161 15.1425C7.33698 18.3536 5.13244 22.6051 4.45506 27.2171C3.77768 31.829 4.66659 36.5349 6.97961 40.582C7.34317 41.2118 7.86521 41.7354 8.49384 42.1009C9.12247 42.4664 9.8358 42.661 10.5629 42.6654H39.4171C40.1513 42.6683 40.8733 42.4771 41.5098 42.1113C42.1464 41.7454 42.675 41.2179 43.0421 40.582C44.9616 37.2569 45.925 33.4659 45.8257 29.6278C45.7264 25.7896 44.5685 22.0535 42.4796 18.832L42.4588 18.8529ZM22.0629 33.1029C22.4499 33.4903 22.9094 33.7976 23.4153 34.0073C23.9211 34.217 24.4633 34.3249 25.0109 34.3249C25.5584 34.3249 26.1006 34.217 26.6064 34.0073C27.1123 33.7976 27.5718 33.4903 27.9588 33.1029L39.7504 15.4154L22.0629 27.207C21.6755 27.594 21.3682 28.0535 21.1585 28.5594C20.9488 29.0652 20.8409 29.6074 20.8409 30.155C20.8409 30.7025 20.9488 31.2447 21.1585 31.7505C21.3682 32.2564 21.6755 32.7159 22.0629 33.1029Z" fill="white"/>
</svg>
