<svg width="50" height="51" viewBox="0 0 50 51" fill="none" xmlns="http://www.w3.org/2000/svg">
<path d="M24.9795 5.16528C13.4795 5.16528 4.16699 14.4986 4.16699 25.9986C4.16699 37.4986 13.4795 46.8319 24.9795 46.8319C36.5003 46.8319 45.8337 37.4986 45.8337 25.9986C45.8337 14.4986 36.5003 5.16528 24.9795 5.16528ZM25.0003 42.6653C15.792 42.6653 8.33366 35.2069 8.33366 25.9986C8.33366 16.7903 15.792 9.33195 25.0003 9.33195C34.2087 9.33195 41.667 16.7903 41.667 25.9986C41.667 35.2069 34.2087 42.6653 25.0003 42.6653Z" fill="white"/>
<path d="M26.042 15.582H22.917V28.082L33.8545 34.6445L35.417 32.082L26.042 26.5195V15.582Z" fill="white"/>
</svg>
